<?xml version="1.0" standalone="no"?>
<!DOCTYPE svg PUBLIC "-//W3C//DTD SVG 20010904//EN"
 "http://www.w3.org/TR/2001/REC-SVG-20010904/DTD/svg10.dtd">
<svg version="1.0" xmlns="http://www.w3.org/2000/svg"
 width="328.000000pt" height="206.000000pt" viewBox="0 0 328.000000 206.000000"
 preserveAspectRatio="xMidYMid meet">

<g transform="translate(0.000000,206.000000) scale(0.100000,-0.100000)"
fill="#000000" stroke="none">
<path d="M522 1528 c-9 -9 -12 -94 -12 -319 0 -266 2 -310 16 -323 13 -13 43
-16 170 -16 141 0 156 2 174 20 16 16 18 25 10 40 -10 18 -21 20 -151 20
l-140 0 3 108 3 107 145 5 145 5 0 30 0 30 -145 5 -145 5 -3 108 -3 107 134 0
c115 0 136 2 149 18 11 12 13 24 7 40 -8 22 -11 22 -177 22 -117 0 -172 -4
-180 -12z"/>
<path d="M1875 1506 c-67 -32 -139 -108 -165 -176 -30 -74 -25 -213 9 -278 55
-106 166 -174 288 -174 89 0 148 25 214 94 95 96 124 223 79 345 -28 78 -98
158 -164 189 -72 34 -190 34 -261 0z m184 -57 c105 -22 186 -132 184 -249 -3
-180 -185 -295 -344 -218 -63 32 -96 76 -124 168 -18 61 -18 62 4 130 18 57
30 77 72 114 33 30 63 48 87 52 20 3 42 7 47 9 17 6 22 5 74 -6z"/>
<path d="M1275 1511 c-78 -21 -156 -84 -197 -156 -31 -56 -33 -66 -33 -155 0
-85 3 -101 29 -153 32 -64 84 -112 161 -148 77 -36 182 -33 255 6 48 26 55 34
55 60 0 39 -23 43 -83 14 -125 -59 -249 -20 -319 99 -23 39 -27 58 -27 117 0
39 6 81 13 95 21 39 81 110 93 110 6 0 19 7 28 15 28 25 126 30 188 8 53 -17
54 -17 68 2 22 29 13 48 -31 69 -44 21 -151 30 -200 17z"/>
<path d="M2445 1277 c-17 -13 -16 -20 30 -143 48 -130 74 -171 102 -156 15 9
113 221 120 264 4 19 0 29 -15 37 -29 15 -46 -3 -82 -91 -18 -43 -33 -78 -35
-78 -2 0 -15 34 -31 76 -26 71 -46 104 -63 104 -4 0 -15 -6 -26 -13z"/>
<path d="M194 1266 c-3 -7 -3 -75 -2 -151 l3 -140 25 0 c25 0 25 0 30 115 5
109 6 115 29 126 16 8 32 9 49 3 16 -6 29 -6 38 2 16 13 17 19 5 38 -12 19
-170 25 -177 7z"/>
<path d="M2834 1261 c-58 -35 -82 -146 -47 -218 37 -79 143 -97 205 -35 39 38
29 59 -15 32 -44 -27 -92 -26 -111 2 -31 44 -22 53 48 53 77 0 119 24 124 71
3 37 -30 92 -64 104 -41 16 -106 12 -140 -9z m124 -63 c14 -50 -1 -68 -52 -68
-50 0 -68 15 -59 51 8 33 30 49 70 49 28 0 34 -4 41 -32z"/>
<path d="M3115 1256 c-3 -11 -4 -77 -3 -145 3 -107 5 -125 21 -135 34 -21 47
16 47 131 0 98 1 104 22 112 13 4 35 5 50 0 26 -7 28 -6 28 22 0 16 -3 30 -7
30 -5 1 -41 3 -81 4 -66 2 -73 1 -77 -19z"/>
<path d="M637 353 c-10 -18 -8 -273 2 -273 6 0 11 19 11 43 0 76 33 90 45 19
3 -20 10 -44 15 -52 16 -27 19 -5 6 46 -11 42 -11 54 0 69 16 22 18 108 4 136
-7 13 -21 19 -45 19 -18 0 -36 -3 -38 -7z m68 -78 c0 -58 -1 -60 -27 -63 -26
-3 -26 -2 -26 55 0 69 3 75 31 71 20 -3 22 -9 22 -63z"/>
<path d="M1300 221 c0 -87 4 -141 10 -141 6 0 10 51 10 134 0 79 -4 137 -10
141 -6 4 -10 -43 -10 -134z"/>
<path d="M2158 249 c-3 -123 -1 -169 10 -169 8 0 7 268 -1 276 -3 3 -7 -45 -9
-107z"/>
<path d="M2650 220 c0 -87 4 -140 10 -140 6 0 10 53 10 140 0 87 -4 140 -10
140 -6 0 -10 -53 -10 -140z"/>
<path d="M2449 318 c-3 -96 4 -215 13 -225 6 -7 18 -13 26 -13 14 0 13 2 -2
13 -14 10 -16 26 -14 97 2 61 6 84 16 83 6 -2 12 2 12 7 0 6 -7 10 -15 10 -10
0 -15 10 -15 30 0 41 -20 38 -21 -2z"/>
<path d="M2559 318 c-2 -18 -2 -78 1 -133 5 -98 6 -100 30 -103 22 -2 23 -1 8
8 -15 9 -18 26 -18 95 0 69 3 86 18 94 16 10 16 10 0 11 -13 0 -18 8 -18 30 0
40 -17 38 -21 -2z"/>
<path d="M781 276 c-8 -9 -11 -46 -9 -103 l3 -88 28 -3 c33 -4 57 13 57 39 0
27 -18 24 -22 -3 -2 -15 -10 -23 -23 -23 -16 0 -21 8 -23 42 -3 41 -2 42 30
45 30 3 33 6 36 41 2 21 -2 45 -9 53 -15 18 -53 18 -68 0z m53 -12 c3 -9 6
-27 6 -40 0 -19 -5 -24 -25 -24 -22 0 -25 4 -25 33 0 19 3 37 7 40 11 12 31 7
37 -9z"/>
<path d="M922 282 c-9 -6 -12 -34 -10 -103 l3 -94 28 -3 c33 -4 57 13 57 39 0
28 -17 23 -24 -7 -5 -17 -12 -24 -24 -22 -15 3 -17 16 -17 93 0 78 2 90 18 93
12 3 19 -5 23 -28 5 -22 10 -28 17 -21 17 17 -8 61 -35 61 -13 0 -29 -4 -36
-8z"/>
<path d="M1108 285 c-3 -6 -9 -49 -13 -97 -4 -49 -10 -88 -15 -88 -4 0 -11 28
-15 63 -9 90 -15 117 -27 117 -6 0 -8 -6 -5 -13 3 -8 8 -45 12 -83 4 -38 13
-81 20 -96 17 -35 9 -68 -16 -68 -11 0 -19 -4 -19 -10 0 -22 40 -9 54 17 23
47 47 296 24 258z"/>
<path d="M1176 268 c-18 -26 -22 -122 -6 -163 8 -22 15 -26 41 -23 37 4 56 27
44 54 -8 17 -9 15 -13 -9 -4 -33 -26 -45 -47 -27 -21 18 -21 153 0 170 19 16
45 -3 45 -31 0 -11 5 -19 10 -19 13 0 13 26 0 51 -14 26 -55 24 -74 -3z"/>
<path d="M1376 274 c-12 -11 -16 -36 -16 -93 0 -87 10 -105 57 -99 24 3 28 8
31 38 4 37 -13 33 -20 -5 -2 -12 -11 -20 -23 -20 -16 0 -21 8 -23 43 l-3 42
35 0 c36 0 36 0 36 43 0 63 -37 88 -74 51z m52 -37 c3 -34 1 -37 -22 -37 -21
0 -26 5 -26 24 0 66 43 77 48 13z"/>
<path d="M1573 255 c4 -22 9 -70 13 -108 4 -37 11 -67 15 -67 5 0 9 -12 9 -26
0 -17 -6 -28 -20 -31 -22 -6 -27 -23 -7 -23 32 0 46 37 62 159 14 112 14 144
0 129 -3 -3 -9 -45 -13 -93 -9 -118 -27 -121 -36 -8 -3 48 -11 92 -18 98 -8 7
-9 -1 -5 -30z"/>
<path d="M1718 279 c-15 -8 -18 -24 -18 -92 0 -51 5 -88 12 -95 15 -15 64 -16
73 -1 13 21 7 181 -7 190 -17 11 -39 11 -60 -2z m52 -18 c16 -31 13 -146 -5
-161 -32 -27 -45 -5 -45 78 0 93 23 132 50 83z"/>
<path d="M1919 201 c-1 -50 -2 -96 -3 -103 -1 -6 4 -13 9 -15 13 -4 18 194 5
202 -6 4 -11 -29 -11 -84z"/>
<path d="M1987 284 c-10 -11 -8 -204 2 -204 10 0 21 191 11 203 -4 4 -9 4 -13
1z"/>
<path d="M2025 280 c-3 -5 -2 -10 4 -10 5 0 13 5 16 10 3 6 2 10 -4 10 -5 0
-13 -4 -16 -10z"/>
<path d="M2220 271 c5 -11 10 -54 10 -95 0 -61 -3 -77 -17 -85 -16 -9 -16 -10
3 -11 27 0 34 23 34 108 0 63 -12 102 -31 102 -6 0 -6 -7 1 -19z"/>
<path d="M2310 280 c-10 -6 -14 -29 -14 -87 0 -99 5 -113 44 -113 24 0 33 6
41 28 11 27 6 152 -6 172 -8 12 -45 13 -65 0z m48 -12 c12 -12 17 -134 6 -162
-9 -24 -41 -19 -48 7 -9 36 -7 127 4 148 12 22 21 24 38 7z"/>
<path d="M2730 271 c-5 -11 -10 -53 -10 -94 0 -83 10 -101 57 -95 24 3 28 8
31 38 4 37 -13 33 -20 -5 -2 -12 -11 -20 -23 -20 -16 0 -21 8 -23 43 l-3 42
35 0 36 0 0 49 c0 35 -4 51 -16 55 -29 11 -53 6 -64 -13z m58 -32 c2 -29 -1
-37 -17 -42 -24 -6 -31 0 -31 29 0 63 43 75 48 13z"/>
<path d="M2861 276 c-22 -27 -9 -78 24 -96 24 -13 30 -23 30 -51 0 -27 -4 -34
-20 -34 -14 0 -21 8 -23 28 -4 36 -22 35 -22 -1 0 -21 7 -32 24 -40 35 -16 66
9 66 54 0 29 -5 37 -35 51 -27 13 -35 23 -35 42 0 14 4 32 9 40 12 19 41 6 41
-19 0 -11 5 -20 10 -20 13 0 13 16 0 41 -12 22 -52 25 -69 5z"/>
<path d="M1842 183 c3 -96 3 -98 28 -101 22 -2 23 -1 8 8 -15 9 -18 26 -18
100 0 56 -4 90 -10 90 -7 0 -10 -35 -8 -97z"/>
</g>
</svg>
