<?xml version="1.0" standalone="no"?>
<!DOCTYPE svg PUBLIC "-//W3C//DTD SVG 20010904//EN"
 "http://www.w3.org/TR/2001/REC-SVG-20010904/DTD/svg10.dtd">
<svg version="1.0" xmlns="http://www.w3.org/2000/svg"
 width="328.000000pt" height="206.000000pt" viewBox="0 0 328.000000 206.000000"
 preserveAspectRatio="xMidYMid meet">
<metadata>
Created by potrace 1.16, written by Peter Selinger 2001-2019
</metadata>
<g transform="translate(0.000000,206.000000) scale(0.100000,-0.100000)"
fill="#000000" stroke="none">
<path d="M522 1528 c-9 -9 -12 -94 -12 -319 0 -266 2 -310 16 -323 13 -13 43
-16 170 -16 141 0 156 2 174 20 16 16 18 25 10 40 -10 18 -21 20 -151 20
l-140 0 3 108 3 107 145 5 145 5 0 30 0 30 -145 5 -145 5 -3 108 -3 107 134 0
c115 0 136 2 149 18 11 12 13 24 7 40 -8 22 -11 22 -177 22 -117 0 -172 -4
-180 -12z"/>
<path d="M1875 1506 c-67 -32 -139 -108 -165 -176 -30 -74 -25 -213 9 -278 55
-106 166 -174 288 -174 89 0 148 25 214 94 95 96 124 223 79 345 -28 78 -98
158 -164 189 -72 34 -190 34 -261 0z m184 -57 c105 -22 186 -132 184 -249 -3
-180 -185 -295 -344 -218 -63 32 -96 76 -124 168 -18 61 -18 62 4 130 18 57
30 77 72 114 33 30 63 48 87 52 20 3 42 7 47 9 17 6 22 5 74 -6z"/>
<path d="M1275 1511 c-78 -21 -156 -84 -197 -156 -31 -56 -33 -66 -33 -155 0
-85 3 -101 29 -153 32 -64 84 -112 161 -148 77 -36 182 -33 255 6 48 26 55 34
55 60 0 39 -23 43 -83 14 -125 -59 -249 -20 -319 99 -23 39 -27 58 -27 117 0
39 6 81 13 95 21 39 81 110 93 110 6 0 19 7 28 15 28 25 126 30 188 8 53 -17
54 -17 68 2 22 29 13 48 -31 69 -44 21 -151 30 -200 17z"/>
<path d="M2445 1277 c-17 -13 -16 -20 30 -143 48 -130 74 -171 102 -156 15 9
113 221 120 264 4 19 0 29 -15 37 -29 15 -46 -3 -82 -91 -18 -43 -33 -78 -35
-78 -2 0 -15 34 -31 76 -26 71 -46 104 -63 104 -4 0 -15 -6 -26 -13z"/>
<path d="M194 1266 c-3 -7 -3 -75 -2 -151 l3 -140 25 0 c25 0 25 0 30 115 5
109 6 115 29 126 16 8 32 9 49 3 16 -6 29 -6 38 2 16 13 17 19 5 38 -12 19
-170 25 -177 7z"/>
<path d="M2834 1261 c-58 -35 -82 -146 -47 -218 37 -79 143 -97 205 -35 39 38
29 59 -15 32 -44 -27 -92 -26 -111 2 -31 44 -22 53 48 53 77 0 119 24 124 71
3 37 -30 92 -64 104 -41 16 -106 12 -140 -9z"/>
<path d="M3115 1256 c-3 -11 -4 -77 -3 -145 3 -107 5 -125 21 -135 34 -21 47
16 47 131 0 98 1 104 22 112 13 4 35 5 50 0 26 -7 28 -6 28 22 0 16 -3 30 -7
30 -5 1 -41 3 -81 4 -66 2 -73 1 -77 -19z"/>
<path d="M637 353 c-10 -18 -8 -273 2 -273 6 0 11 19 11 43 0 76 33 90 45 19
3 -20 10 -44 15 -52 16 -27 19 -5 6 46 -11 42 -11 54 0 69 16 22 18 108 4 136
-7 13 -21 19 -45 19 -18 0 -36 -3 -38 -7z"/>
<path d="M1718 279 c-15 -8 -18 -24 -18 -92 0 -51 5 -88 12 -95 15 -15 64 -16
73 -1 13 21 7 181 -7 190 -17 11 -39 11 -60 -2z"/>
<path d="M2310 280 c-10 -6 -14 -29 -14 -87 0 -99 5 -113 44 -113 24 0 33 6
41 28 11 27 6 152 -6 172 -8 12 -45 13 -65 0z"/>
</g>
</svg>
